<svg id="Layer_1" data-name="Layer 1" xmlns="http://www.w3.org/2000/svg" viewBox="0 0 822.05 411.02"><defs><style>.cls-1{fill:#ea3e27;}</style></defs><title>Artboard 1</title><path class="cls-1" d="M111.28,296.18c-8.89,0-14.1-5.72-14.1-15.63V183.48H88c-7.75,0-12.45-4.19-12.45-11.31S80.16,160.87,88,160.87h9.15V149.05c0-27.06,13.34-39.39,40-39.39,7.62,0,13.47,1.4,17.28,3.94,3.3,2.41,5.08,5.46,5.08,9.15,0,5.72-3.56,9.4-9,9.4-5,0-6.35-.76-11.82-.76-9.15,0-13.72,5.08-13.72,16.64v12.83h16.52c7.88,0,12.45,4.19,12.45,11.31s-4.57,11.31-12.45,11.31H125.39v97.07C125.39,290.46,120.18,296.18,111.28,296.18Zm68.23-15.63V127.07c0-10.42,5.59-15.63,14-15.63s14.23,5.21,14.23,15.63V280.55c0,10.42-5.72,15.63-14.23,15.63S179.51,291,179.51,280.55Z"/><path class="cls-1" d="M239,218.42c0-35.83,23.76-60.35,58.44-60.35,33.16,0,56.67,23.89,56.67,56.92,0,14.86-3.56,19.44-14.74,19.44H267.67v6.35c0,20.71,13,33.92,34.18,33.92,10.8,0,18.8-3,25.28-8.89,6.61-5.59,8.64-7,13.09-7,6.1,0,10.29,4.45,10.29,10.93,0,5-3,10.29-8.26,14.49-8.64,8.26-24.39,13.21-42.05,13.21-37.86,0-61.24-22.61-61.24-60Zm87.79-3.68v-.38c0-20.46-11.31-33.67-29-33.67-18.17,0-30.11,13.59-30.11,33.67v.38Z"/><path class="cls-1" d="M380.1,273.94l34.3-46-35.19-45.48a16.3,16.3,0,0,1-3.43-9.78,12.72,12.72,0,0,1,12.83-12.83c5.84,0,10,2.79,14.36,9.53l26.93,40h1.52l26.81-40c4.45-6.73,8.39-9.4,14.36-9.4,7.12,0,12.58,5.34,12.58,13a13.85,13.85,0,0,1-3.31,9l-34.94,46,34.56,45.1a15.39,15.39,0,0,1,3.94,10,12.8,12.8,0,0,1-12.58,13.09c-6,0-10.42-2.92-14.74-9.53l-26.68-40h-1.52l-26.17,39.89c-4.45,6.86-8.51,9.66-14.23,9.66a12.69,12.69,0,0,1-12.7-12.83A15.1,15.1,0,0,1,380.1,273.94Z"/><path class="cls-1" d="M669.19,187.74A45.08,45.08,0,0,1,732,198.81L748.77,187a65.59,65.59,0,0,0-107.46,75.24l16.81-11.77A45.07,45.07,0,0,1,669.19,187.74Z"/><path class="cls-1" d="M748.84,187.15,732,198.91a45.07,45.07,0,0,1-73.84,51.71l-16.81,11.77a65.59,65.59,0,0,0,91.35,16.11c1.38-1,2.7-2,4-3l-.17,1.3c-.17,6.67,2.45,11,6.94,13.56a11.11,11.11,0,0,0,15.13-4.38c1.54-2.67,1.27-5.09,1.4-9.26l.63-49.49A65.3,65.3,0,0,0,748.84,187.15Z"/><path class="cls-1" d="M531.74,187.74a45.08,45.08,0,0,1,62.78,11.07L611.33,187a65.59,65.59,0,0,0-107.46,75.24l16.81-11.77A45.07,45.07,0,0,1,531.74,187.74Z"/><path class="cls-1" d="M611.4,187.15l-16.81,11.77a45.07,45.07,0,0,1-73.84,51.71l-16.81,11.77a65.59,65.59,0,0,0,91.35,16.11c1.38-1,2.7-2,4-3l-.17,1.3c-.17,6.67,2.45,11,6.94,13.56a11.11,11.11,0,0,0,15.13-4.38c1.54-2.67,1.27-5.09,1.4-9.26l.63-49.49A65.3,65.3,0,0,0,611.4,187.15Z"/></svg>